<svg width="100%" height="100%" id="svg" viewBox="0 0 1440 500" xmlns="http://www.w3.org/2000/svg" class="transition duration-300 ease-in-out delay-150"><path d="M 0,500 C 0,500 0,125 0,125 C 66.7923076923077,122.25897435897436 133.5846153846154,119.51794871794871 222,133 C 310.4153846153846,146.4820512820513 420.45384615384614,176.1871794871795 500,171 C 579.5461538461539,165.8128205128205 628.5999999999999,125.73333333333333 700,109 C 771.4000000000001,92.26666666666667 865.146153846154,98.87948717948717 959,114 C 1052.853846153846,129.12051282051283 1146.8153846153843,152.74871794871794 1227,156 C 1307.1846153846157,159.25128205128206 1373.5923076923077,142.12564102564102 1440,125 C 1440,125 1440,500 1440,500 Z" stroke="none" stroke-width="0" fill="#52b788" fill-opacity="0.4" class="transition-all duration-300 ease-in-out delay-150 path-0" transform="rotate(-180 720 250)"></path><path d="M 0,500 C 0,500 0,250 0,250 C 89.3179487179487,254.5974358974359 178.6358974358974,259.1948717948718 262,250 C 345.3641025641026,240.80512820512823 422.7743589743591,217.81794871794875 488,226 C 553.2256410256409,234.18205128205125 606.2666666666667,273.5333333333333 690,275 C 773.7333333333333,276.4666666666667 888.1589743589743,240.04871794871792 975,227 C 1061.8410256410257,213.95128205128208 1121.0974358974358,224.27179487179487 1194,232 C 1266.9025641025642,239.72820512820513 1353.451282051282,244.86410256410255 1440,250 C 1440,250 1440,500 1440,500 Z" stroke="none" stroke-width="0" fill="#52b788" fill-opacity="0.53" class="transition-all duration-300 ease-in-out delay-150 path-1" transform="rotate(-180 720 250)"></path><path d="M 0,500 C 0,500 0,375 0,375 C 62.84615384615384,382.2871794871795 125.69230769230768,389.574358974359 198,393 C 270.3076923076923,396.425641025641 352.0769230769231,395.98974358974357 445,383 C 537.9230769230769,370.01025641025643 641.9999999999999,344.4666666666667 720,348 C 798.0000000000001,351.5333333333333 849.923076923077,384.1435897435897 930,400 C 1010.076923076923,415.8564102564103 1118.3076923076924,414.9589743589744 1208,408 C 1297.6923076923076,401.0410256410256 1368.8461538461538,388.0205128205128 1440,375 C 1440,375 1440,500 1440,500 Z" stroke="none" stroke-width="0" fill="#52b788" fill-opacity="1" class="transition-all duration-300 ease-in-out delay-150 path-2" transform="rotate(-180 720 250)"></path></svg>